<?xml version="1.0" encoding="utf-8"?>
<!-- Generator: Adobe Illustrator 27.0.0, SVG Export Plug-In . SVG Version: 6.00 Build 0)  -->
<svg version="1.1" id="Слой_1" xmlns="http://www.w3.org/2000/svg" xmlns:xlink="http://www.w3.org/1999/xlink" x="0px" y="0px"
	 viewBox="0 0 270 43.9" style="enable-background:new 0 0 270 43.9;" xml:space="preserve">
<style type="text/css">
	.st0{opacity:0.25;fill:#F6F6F6;enable-background:new    ;}
	.st1{opacity:0.5;fill:#F6F6F6;enable-background:new    ;}
	.st2{fill:#F6F6F6;}
	.st3{fill:#606060;enable-background:new    ;}
</style>
<path class="st0" d="M17.2,40.4H266V21L237.8,3.2H3.9V32L17.2,40.4z M265.2,39.9H17.6l-13-8.2V3.6h232.8l27.8,17.5V39.9z"/>
<path class="st1" d="M18.8,39h245.9V21.5L237.8,4.6H6.7v26.7L18.8,39z M263.3,38.2H19.3L8,31V5.5h229.3l26.1,16.4V38.2z"/>
<path class="st2" d="M267.5,28.3h0.8v-9L239,1h-21.1v0.5h20.8l28.8,18.1L267.5,28.3L267.5,28.3z"/>
<path class="st2" d="M16.8,42.1h23.9v-0.5H17.1L2.5,32.7V18.3H1.7v14.6L16.8,42.1z"/>
<polygon class="st3" points="8.3,5.5 8.3,31 19.5,38.2 262.8,38.2 262.8,21.9 236.8,5.5 "/>
</svg>
