<svg width="310" height="105" viewBox="0 0 310 105" fill="none" xmlns="http://www.w3.org/2000/svg">
<g opacity="0.16" clip-path="url(#clip0_99_5388)">
<path opacity="0.25" d="M17.9654 102.221H307.685V50.4L274.884 3.15001H2.35822V79.7382L17.9654 102.221ZM306.784 100.862H18.3513L3.25864 79.1206V4.3853H274.498L306.784 50.8941V100.862Z" fill="#F6F6F6"/>
<path opacity="0.5" d="M19.0802 98.2677H304.94V51.9441L273.726 6.97942H5.0166V78.0706L19.0802 98.2677ZM303.44 96.1059H19.6805L6.5173 77.1441V9.14118H273.126L303.44 52.8088V96.1059Z" fill="#F6F6F6"/>
<path d="M308.928 72.5735H309.871V48.7324L276.041 0H251.687V1.29706H275.656L308.928 49.2882V72.5735Z" fill="#F6F6F6"/>
<path d="M16.9363 105H43.2198V103.703H17.2793L1.20049 80.4794V43.1735H0.300079V81.0353L16.9363 105Z" fill="#F6F6F6"/>
</g>
<defs>
<clipPath id="clip0_99_5388">
<rect width="310" height="105" fill="white" transform="matrix(-1 0 0 1 310 0)"/>
</clipPath>
</defs>
</svg>
