<svg width="47" height="39" viewBox="0 0 47 39" fill="none" xmlns="http://www.w3.org/2000/svg">
<path d="M33.2072 30.2232H13.7607C11.2233 30.2232 9.15933 28.1592 9.15933 25.6219V13.3452C9.15933 10.8082 11.2236 8.7439 13.7607 8.7439H33.2072C35.7442 8.7439 37.8082 10.8082 37.8082 13.3452V25.6219C37.8082 28.1592 35.7442 30.2232 33.2072 30.2232ZM13.7607 10.0894C11.9653 10.0894 10.5049 11.5499 10.5049 13.3452V25.6219C10.5049 27.4172 11.9653 28.878 13.7607 28.878H33.2072C35.0025 28.878 36.4629 27.4172 36.4629 25.6219V13.3452C36.4629 11.5499 35.0025 10.0894 33.2072 10.0894H13.7607Z" fill="#E55F0E"/>
<path d="M12.6749 13.4092C16.114 16.7605 19.5531 20.1114 22.9923 23.4627C23.6334 24.0873 24.6173 23.1056 23.9752 22.4797C20.5361 19.1288 17.097 15.7775 13.6578 12.4265C13.0167 11.8017 12.0328 12.7837 12.6749 13.4092Z" fill="#E55F0E"/>
<path d="M23.9752 23.4627C27.4144 20.1117 30.8535 16.7604 34.2926 13.4095C34.9344 12.784 33.9511 11.8016 33.3097 12.4265C29.8705 15.7775 26.4314 19.1287 22.9923 22.4797C22.3505 23.1052 23.3338 24.0875 23.9752 23.4627Z" fill="#E55F0E"/>
<path d="M34.2547 25.8349C31.9663 23.6646 29.6776 21.4946 27.3892 19.3243C26.7401 18.7089 25.7556 19.69 26.4062 20.3072C28.6946 22.4775 30.9834 24.6475 33.2718 26.8178C33.9208 27.4331 34.9054 26.4518 34.2547 25.8349Z" fill="#E55F0E"/>
<path d="M13.7578 26.8174C16.0462 24.6471 18.3349 22.4771 20.6233 20.3068C21.2737 19.6899 20.2897 18.7082 19.6404 19.3239C17.3519 21.4942 15.0632 23.6642 12.7748 25.8345C12.1245 26.4514 13.1084 27.4334 13.7578 26.8174Z" fill="#E55F0E"/>
<path d="M35.218 38.2143H11.7331L0 19.1072L11.7331 0H35.218L46.9511 19.1072L35.218 38.2143ZM13.2531 35.7368H33.698L43.9112 19.1072L33.698 2.47748H13.2531L3.03987 19.1072L13.2531 35.7368Z" fill="#E55F0E"/>
</svg>
