<svg width="71" height="60" viewBox="0 0 71 60" fill="none" xmlns="http://www.w3.org/2000/svg">
<g clip-path="url(#clip0_106_6546)">
<path fill-rule="evenodd" clip-rule="evenodd" d="M35.0432 4.40361C21.8354 4.40361 11.124 15.4491 11.124 29.0703C10.8608 42.6901 21.3558 53.9504 34.5624 54.2218C47.7689 54.4931 58.69 43.6708 58.9531 30.0524C58.9598 29.7273 58.9598 29.4022 58.9531 29.0772C58.9531 15.4491 48.2471 4.40361 35.0432 4.40361ZM34.0615 39.0303H30.1744V30.9036C30.1744 29.2865 30.113 28.2617 29.9647 27.8279C29.8285 27.4009 29.5546 27.0358 29.19 26.7907C28.7732 26.5179 28.2857 26.383 27.7915 26.4022C27.1837 26.3926 26.5853 26.5648 26.0697 26.8981C25.5421 27.2466 25.148 27.7728 24.9517 28.3871C24.7139 29.051 24.5963 30.0166 24.6004 31.3127V39.0262H20.7267V17.0785H24.5536V25.5937C25.8092 24.0579 27.3266 23.2838 29.0644 23.2838C29.9019 23.27 30.7301 23.4504 31.4915 23.8099C32.2128 24.1571 32.7591 24.602 33.1211 25.1433C33.4858 25.686 33.7382 26.3003 33.8651 26.9477C33.9987 27.6033 34.0615 28.624 34.0615 30.0083V39.0303ZM49.3104 39.0303H45.4781V30.9036C45.4781 29.2865 45.4046 28.2617 45.2564 27.8279C45.1175 27.4009 44.8423 27.0345 44.475 26.7907C44.0569 26.5179 43.5693 26.3816 43.0751 26.4022C42.466 26.3926 41.8676 26.5648 41.352 26.8981C40.8244 27.2507 40.4276 27.7741 40.2233 28.3871C39.9855 29.0551 39.8519 30.04 39.8519 31.3306V39.0303H35.9649V17.0785H39.8519V25.5937C41.1075 24.0579 42.6129 23.2838 44.3507 23.2838C45.1883 23.2714 46.0164 23.4504 46.7778 23.8099C47.4951 24.1571 48.0387 24.602 48.4007 25.1433C48.7587 25.6874 49.0045 26.3017 49.1234 26.9477C49.2569 27.6033 49.2997 28.624 49.2997 30.0083L49.3104 39.0303Z" fill="#1D1D1B"/>
</g>
<path d="M53.257 59.0367H17.743L0 29.5184L17.743 0H53.257L71 29.5184L53.257 59.0367ZM20.0415 55.2093H50.9585L66.4031 29.5184L50.9585 3.82743H20.0415L4.59692 29.5184L20.0415 55.2093Z" fill="#1D1D1B"/>
<defs>
<clipPath id="clip0_106_6546">
<rect width="48.087" height="50" fill="white" transform="translate(11 4.2824)"/>
</clipPath>
</defs>
</svg>
