<svg width="71" height="60" viewBox="0 0 71 60" fill="none" xmlns="http://www.w3.org/2000/svg">
<g clip-path="url(#clip0_106_6555)">
<path d="M23.1549 9.40582C20.7476 9.40582 19 11.1027 19 13.4389C19 15.7743 20.713 17.4696 23.0717 17.4696C24.2953 17.4696 25.3494 17.0641 26.1208 16.2972C26.8605 15.561 27.2681 14.546 27.2674 13.4208C27.2134 11.057 25.522 9.40582 23.1549 9.40582ZM25.0466 15.1688C24.5689 15.6436 23.8854 15.8948 23.0717 15.8948C21.5822 15.8948 20.5411 14.8854 20.5411 13.4389C20.5411 11.9688 21.5914 10.9806 23.1549 10.9806C24.6829 10.9806 25.6923 11.9531 25.727 13.4397C25.7262 14.1184 25.4851 14.7318 25.0466 15.1688Z" fill="#1D1D1B"/>
<path d="M19.7388 44.8193H26.6646V18.7996H19.7388V44.8193ZM21.2799 20.3744H25.1235V43.2437H21.2799V20.3744Z" fill="#1D1D1B"/>
<path d="M44.9278 18.7996C41.7161 18.7996 39.7496 19.9326 38.6107 20.998L38.3942 18.7996H30.5583V44.8185H38.2324V31.1437C38.2324 30.5547 38.4659 29.3319 38.6123 29.009C39.5393 26.9689 40.7899 26.9689 42.6839 26.9689C44.8654 26.9689 46.7086 29.0594 46.7086 31.5335V44.8201H54.4142V30.1193C54.4142 22.3413 49.4965 18.7996 44.9278 18.7996ZM52.8731 43.2445H48.2497V31.5327C48.2497 28.2043 45.7007 25.3933 42.6839 25.3933C40.7483 25.3933 38.5553 25.3933 37.2137 28.346C36.9371 28.9563 36.6905 30.4185 36.6905 31.1437V43.2445H32.0995V20.3744H37.0003L37.3146 23.5586H38.5776L38.8034 23.1862C39.3173 22.3405 40.9425 20.3736 44.9278 20.3736C48.7544 20.3736 52.8731 23.4224 52.8731 30.1169V43.2445Z" fill="#1D1D1B"/>
</g>
<path d="M53.257 59.0367H17.743L0 29.5184L17.743 0H53.257L71 29.5184L53.257 59.0367ZM20.0415 55.2093H50.9585L66.4031 29.5184L50.9585 3.82743H20.0415L4.59692 29.5184L20.0415 55.2093Z" fill="#1D1D1B"/>
<defs>
<clipPath id="clip0_106_6555">
<rect width="35.4143" height="36.42" fill="white" transform="translate(19 9)"/>
</clipPath>
</defs>
</svg>
