<svg width="47" height="40" viewBox="0 0 47 40" fill="none" xmlns="http://www.w3.org/2000/svg">
<g clip-path="url(#clip0_181_36)">
<path d="M34.6865 8.87811C34.229 8.47069 33.5895 8.35868 33.0274 8.5869L7.96903 18.7389C7.13131 19.0777 6.71992 20.0536 7.04849 20.9174C7.25079 21.4494 7.70156 21.8387 8.24601 21.9507L15.0469 23.3521V32.0088C15.0401 32.6907 15.4393 33.3067 16.053 33.5615C16.2539 33.6483 16.4698 33.6931 16.687 33.6931C17.1161 33.6917 17.5275 33.5125 17.8289 33.1961L21.712 29.1919L27.4389 34.3918C27.7336 34.662 28.1151 34.8118 28.5102 34.8118C28.6813 34.8118 28.8523 34.7838 29.0153 34.7292C29.5638 34.55 29.9779 34.0838 30.1028 33.5055L35.2092 10.526C35.3464 9.91837 35.1441 9.28414 34.6865 8.87811ZM8.02334 20.3518C7.99619 20.1026 8.13739 19.8659 8.36549 19.7805L31.3356 10.4756L15.4637 22.2965L8.45781 20.8516C8.21885 20.8082 8.03963 20.6024 8.02334 20.3518ZM17.0604 32.4051C16.8486 32.6235 16.5051 32.6235 16.2919 32.4051C16.1901 32.3001 16.1331 32.1572 16.1331 32.0088V24.132L20.8933 28.4526L17.0604 32.4051ZM34.1516 10.2754L29.0451 33.2563C28.9786 33.5573 28.6867 33.7463 28.3948 33.6777C28.3065 33.6567 28.2251 33.6133 28.1572 33.5517L16.4603 22.9363L34.0647 9.82597C34.1584 9.95478 34.1909 10.12 34.1516 10.2754Z" fill="#E55F0E"/>
</g>
<path d="M35.218 39.0842H11.7331L0 19.977L11.7331 0.869873H35.218L46.9511 19.977L35.218 39.0842ZM13.2531 36.6067H33.698L43.9112 19.977L33.698 3.34736H13.2531L3.03987 19.977L13.2531 36.6067Z" fill="#E55F0E"/>
<defs>
<clipPath id="clip0_181_36">
<rect width="28.5015" height="26.4513" fill="white" transform="translate(6.93536 8.47034)"/>
</clipPath>
</defs>
</svg>
