<svg width="47" height="39" viewBox="0 0 47 39" fill="none" xmlns="http://www.w3.org/2000/svg">
<g clip-path="url(#clip0_181_45)">
<path fill-rule="evenodd" clip-rule="evenodd" d="M23.1449 4.7522C14.011 4.7522 6.61285 11.5666 6.61285 19.9799C6.61285 26.7181 11.3452 32.4094 17.9167 34.4271C18.7433 34.5603 19.0532 34.1035 19.0532 33.7038C19.0532 33.3421 19.0326 32.143 19.0326 30.8676C14.8789 31.5719 13.8043 29.9349 13.4737 29.0784C13.2877 28.6406 12.4817 27.2891 11.7791 26.9275C11.2005 26.642 10.3739 25.9377 11.7585 25.9186C13.0604 25.8996 13.9903 27.0226 14.3003 27.4795C15.7882 29.7827 18.1646 29.1355 19.1152 28.7358C19.2599 27.746 19.6939 27.0798 20.1692 26.6991C16.4908 26.3184 12.6471 25.005 12.6471 19.1804C12.6471 17.5244 13.2877 16.1539 14.3416 15.088C14.1763 14.7073 13.5977 13.1464 14.5069 11.0526C14.5069 11.0526 15.8915 10.6529 19.0532 12.6135C20.3758 12.2709 21.781 12.0995 23.1863 12.0995C24.5915 12.0995 25.9967 12.2709 27.3193 12.6135C30.481 10.6339 31.8656 11.0526 31.8656 11.0526C32.7749 13.1464 32.1963 14.7073 32.0309 15.088C33.0849 16.1539 33.7255 17.5054 33.7255 19.1804C33.7255 25.024 29.8611 26.3184 26.1827 26.6991C26.782 27.1749 27.2986 28.0886 27.2986 29.5162C27.2986 31.5529 27.278 33.1899 27.278 33.7038C27.278 34.1035 27.5879 34.5794 28.4145 34.4271C34.9447 32.4094 39.677 26.6991 39.677 19.9799C39.677 11.5666 32.2789 4.7522 23.1449 4.7522Z" fill="#E55F0E"/>
</g>
<path d="M35.218 38.2143H11.7331L0 19.1072L11.7331 0H35.218L46.9511 19.1072L35.218 38.2143ZM13.2531 35.7368H33.698L43.9112 19.1072L33.698 2.47748H13.2531L3.03987 19.1072L13.2531 35.7368Z" fill="#E55F0E"/>
<defs>
<clipPath id="clip0_181_45">
<rect width="33.0642" height="30.4553" fill="white" transform="translate(6.61285 4.7522)"/>
</clipPath>
</defs>
</svg>
