<?xml version="1.0" encoding="utf-8"?>
<!-- Generator: Adobe Illustrator 27.0.0, SVG Export Plug-In . SVG Version: 6.00 Build 0)  -->
<svg version="1.1" id="Слой_1" xmlns="http://www.w3.org/2000/svg" xmlns:xlink="http://www.w3.org/1999/xlink" x="0px" y="0px"
	 viewBox="0 0 71 60" style="enable-background:new 0 0 71 60;" xml:space="preserve">
<style type="text/css">
	.st0{fill:#E75D02;}
</style>
<path class="st0" d="M53.3,59H17.7L0,29.5L17.7,0h35.5L71,29.5L53.3,59z M20,55.2h31l15.4-25.7L51,3.8H20L4.6,29.5L20,55.2z"/>
<g>
	<g>
		<path class="st0" d="M23.5,41.6c-2.6,0-4.5-0.6-5.7-1.8S16,36.7,16,34.1v-8c0-2.6,0.6-4.5,1.8-5.7s3.1-1.8,5.6-1.8h4.2
			c2.2,0,3.8,0.4,4.9,1.3c1.1,0.9,1.7,2.3,1.8,4.3c0,0.4,0,0.6-0.2,0.8s-0.5,0.3-0.8,0.3c-0.7,0-1.1-0.4-1.2-1.1
			c-0.1-1.3-0.5-2.2-1.2-2.7s-1.8-0.7-3.3-0.7h-4.2c-1.3,0-2.3,0.1-3.1,0.5c-0.8,0.3-1.3,0.9-1.6,1.6s-0.5,1.8-0.5,3.1v8
			c0,1.3,0.2,2.3,0.5,3.1s0.9,1.3,1.7,1.7c0.8,0.3,1.8,0.5,3.1,0.5h4.2c1.5,0,2.7-0.2,3.3-0.7c0.7-0.5,1.1-1.4,1.2-2.7
			c0.1-0.7,0.5-1.1,1.2-1.1c0.4,0,0.7,0.1,0.8,0.3s0.3,0.5,0.2,0.8c-0.1,2-0.7,3.4-1.8,4.3c-1.1,0.9-2.7,1.3-4.9,1.3h-4.2V41.6z"/>
		<path class="st0" d="M47.6,41.6c-0.5,0-0.8-0.3-1-0.8l-8.9-20.6c-0.2-0.4-0.2-0.7,0-0.9c0.1-0.3,0.4-0.4,0.7-0.5
			c0.6-0.2,1.1,0,1.3,0.6L48.1,39h-0.8l8.5-19.7c0.3-0.6,0.7-0.8,1.3-0.6c0.3,0.1,0.6,0.3,0.7,0.5c0.1,0.3,0.1,0.6,0,0.9l-9,20.6
			c-0.2,0.5-0.6,0.8-1.1,0.8h-0.1V41.6z"/>
	</g>
</g>
</svg>
