<svg width="71" height="60" viewBox="0 0 71 60" fill="none" xmlns="http://www.w3.org/2000/svg">
<path d="M48.3891 44.7907H21.5664C18.0666 44.7907 15.2197 41.9438 15.2197 38.444V21.5107C15.2197 18.0114 18.067 15.1641 21.5664 15.1641H48.3891C51.8885 15.1641 54.7354 18.0114 54.7354 21.5107V38.444C54.7354 41.9438 51.8885 44.7907 48.3891 44.7907ZM21.5664 17.02C19.0901 17.02 17.0756 19.0344 17.0756 21.5107V38.444C17.0756 40.9203 19.0901 42.9352 21.5664 42.9352H48.3891C50.8655 42.9352 52.8799 40.9203 52.8799 38.444V21.5107C52.8799 19.0344 50.8655 17.02 48.3891 17.02H21.5664Z" fill="#1D1D1B"/>
<path d="M20.0689 21.599C24.8126 26.2214 29.5562 30.8434 34.2998 35.4659C35.1841 36.3273 36.5412 34.9732 35.6557 34.1101C30.912 29.488 26.1684 24.8656 21.4248 20.2436C20.5405 19.3817 19.1834 20.7362 20.0689 21.599Z" fill="#1D1D1B"/>
<path d="M35.6554 35.4659C40.399 30.8439 45.1426 26.2214 49.8862 21.5994C50.7714 20.7366 49.4151 19.3817 48.5304 20.2436C43.7868 24.8656 39.0432 29.488 34.2995 34.11C33.4144 34.9728 34.7706 36.3278 35.6554 35.4659Z" fill="#1D1D1B"/>
<path d="M49.834 38.7378C46.6776 35.7442 43.5207 32.7512 40.3643 29.7576C39.4691 28.9089 38.111 30.2621 39.0085 31.1135C42.1649 34.107 45.3218 37.1001 48.4782 40.0936C49.3734 40.9423 50.7315 39.5887 49.834 38.7378Z" fill="#1D1D1B"/>
<path d="M21.5622 40.0932C24.7186 37.0996 27.8755 34.1065 31.0319 31.113C31.9289 30.2621 30.5717 28.908 29.6761 29.7572C26.5196 32.7507 23.3628 35.7438 20.2064 38.7373C19.3094 39.5882 20.6665 40.9427 21.5622 40.0932Z" fill="#1D1D1B"/>
<path d="M53.257 59.04H17.743L0 29.52L17.743 0H53.257L71 29.52L53.257 59.04ZM20.0415 55.2124H50.9585L66.4031 29.52L50.9585 3.82764H20.0415L4.59692 29.52L20.0415 55.2124Z" fill="#1D1D1B"/>
</svg>
