<svg width="47" height="40" viewBox="0 0 47 40" fill="none" xmlns="http://www.w3.org/2000/svg">
<g clip-path="url(#clip0_181_23)">
<path d="M15.3119 8.09351C13.7201 8.09351 12.5644 9.21561 12.5644 10.7605C12.5644 12.3049 13.6971 13.426 15.2569 13.426C16.0661 13.426 16.7632 13.1578 17.2732 12.6506C17.7624 12.1638 18.032 11.4926 18.0315 10.7485C17.9958 9.18541 16.8773 8.09351 15.3119 8.09351ZM16.5629 11.9045C16.247 12.2185 15.795 12.3846 15.2569 12.3846C14.2719 12.3846 13.5835 11.717 13.5835 10.7605C13.5835 9.78838 14.278 9.1349 15.3119 9.1349C16.3224 9.1349 16.9899 9.77796 17.0129 10.761C17.0123 11.2099 16.8529 11.6155 16.5629 11.9045Z" fill="#E55F0E"/>
<path d="M13.053 31.5119H17.6329V14.3054H13.053V31.5119ZM14.0721 15.3468H16.6138V30.4699H14.0721V15.3468Z" fill="#E55F0E"/>
<path d="M29.71 14.3054C27.5862 14.3054 26.2858 15.0547 25.5327 15.7592L25.3895 14.3054H20.2078V31.5113H25.2825V22.4684C25.2825 22.0789 25.4369 21.2703 25.5337 21.0568C26.1467 19.7077 26.9737 19.7077 28.2262 19.7077C29.6688 19.7077 30.8876 21.0901 30.8876 22.7261V31.5124H35.9832V21.791C35.9832 16.6475 32.7312 14.3054 29.71 14.3054ZM34.9641 30.4705H31.9068V22.7256C31.9068 20.5246 30.2211 18.6657 28.2262 18.6657C26.9462 18.6657 25.496 18.6657 24.6088 20.6184C24.4259 21.0219 24.2628 21.9888 24.2628 22.4684V30.4705H21.2269V15.3468H24.4677L24.6756 17.4525H25.5108L25.6601 17.2062C25.9999 16.647 27.0746 15.3463 29.71 15.3463C32.2405 15.3463 34.9641 17.3624 34.9641 21.7894V30.4705Z" fill="#E55F0E"/>
</g>
<path d="M35.218 39.1417H11.7331L0 20.0345L11.7331 0.927368H35.218L46.9511 20.0345L35.218 39.1417ZM13.2531 36.6642H33.698L43.9112 20.0345L33.698 3.40485H13.2531L3.03987 20.0345L13.2531 36.6642Z" fill="#E55F0E"/>
<defs>
<clipPath id="clip0_181_23">
<rect width="23.4189" height="24.0839" fill="white" transform="translate(12.5644 7.8252)"/>
</clipPath>
</defs>
</svg>
