<svg width="71" height="60" viewBox="0 0 71 60" fill="none" xmlns="http://www.w3.org/2000/svg">
<path d="M53.9656 13.6166C53.2737 13.0005 52.3066 12.8312 51.4566 13.1763L13.5631 28.5282C12.2963 29.0406 11.6742 30.5163 12.1711 31.8226C12.477 32.6271 13.1586 33.2157 13.982 33.3851L24.2663 35.5044V48.5952C24.2561 49.6263 24.8597 50.5578 25.7878 50.9432C26.0916 51.0744 26.4181 51.1422 26.7466 51.1422C27.3954 51.1401 28.0175 50.8691 28.4733 50.3906L34.3454 44.3353L43.0057 52.1987C43.4513 52.6073 44.0282 52.8339 44.6257 52.8339C44.8844 52.8339 45.1431 52.7915 45.3895 52.7089C46.2189 52.4379 46.8452 51.7329 47.0341 50.8585L54.7561 16.1086C54.9634 15.1897 54.6575 14.2306 53.9656 13.6166ZM13.6452 30.9672C13.6042 30.5904 13.8177 30.2326 14.1627 30.1034L48.8983 16.0324L24.8967 33.9081L14.3023 31.7231C13.9409 31.6575 13.6699 31.3462 13.6452 30.9672ZM27.3112 49.1944C26.9909 49.5246 26.4715 49.5246 26.1491 49.1944C25.9951 49.0356 25.9089 48.8196 25.9089 48.5952V36.6837L33.1073 43.2175L27.3112 49.1944ZM53.1566 15.7296L45.4346 50.4816C45.334 50.9368 44.8926 51.2227 44.4512 51.1189C44.3177 51.0872 44.1945 51.0215 44.0919 50.9284L26.4037 34.8756L53.0252 15.05C53.1669 15.2448 53.2162 15.4946 53.1566 15.7296Z" fill="#1D1D1B"/>
<path d="M53.257 59.0367H17.743L0 29.5184L17.743 0H53.257L71 29.5184L53.257 59.0367ZM20.0415 55.2093H50.9585L66.4031 29.5184L50.9585 3.82743H20.0415L4.59692 29.5184L20.0415 55.2093Z" fill="#1D1D1B"/>
</svg>
