<svg width="62" height="70" viewBox="0 0 62 70" fill="none" xmlns="http://www.w3.org/2000/svg">
<path d="M30.625 69.4531C29.709 69.4531 28.7793 69.207 27.9727 68.7422L19.5371 63.752C18.2793 63.041 18.8945 62.7949 19.3047 62.6582C20.9863 62.0703 21.3281 61.9473 23.1191 60.9219C23.3105 60.8125 23.5566 60.8535 23.748 60.9766L30.2285 64.8184C30.4609 64.9551 30.7891 64.9551 31.0078 64.8184L56.2598 50.2441C56.4922 50.1074 56.6426 49.834 56.6426 49.5605V20.4121C56.6426 20.125 56.4922 19.8652 56.2461 19.7148L31.0078 5.1543C30.7754 5.01758 30.4609 5.01758 30.2285 5.1543L5.00391 19.7285C4.75781 19.8652 4.60742 20.1387 4.60742 20.4258V49.5605C4.60742 49.834 4.75781 50.1074 5.00391 50.2305L11.9219 54.2227C15.6816 56.0957 17.9785 53.8945 17.9785 51.666V22.9004C17.9785 22.4902 18.3066 22.1758 18.7168 22.1758H21.916C22.3125 22.1758 22.6543 22.4902 22.6543 22.9004V51.6797C22.6543 56.6836 19.9199 59.5547 15.1758 59.5547C13.7129 59.5547 12.5645 59.5547 9.36523 57.9688L2.74805 54.1543C1.10742 53.2109 0.0957031 51.4473 0.0957031 49.5469V20.4121C0.0957031 18.5254 1.10742 16.748 2.74805 15.8047L27.9727 1.23047C29.5723 0.328125 31.6914 0.328125 33.2773 1.23047L58.5293 15.8184C60.1699 16.7617 61.1816 18.5254 61.1816 20.4258V49.5605C61.1816 51.4473 60.1699 53.2109 58.5293 54.168L33.2773 68.7422C32.4707 69.207 31.5547 69.4531 30.625 69.4531ZM51.0098 40.7285C51.0098 35.2734 47.3184 33.8242 39.5664 32.7988C31.7187 31.7598 30.9258 31.2266 30.9258 29.3945C30.9258 27.877 31.5957 25.8535 37.4062 25.8535C42.5879 25.8535 44.5019 26.9746 45.2949 30.4746C45.3633 30.8027 45.6641 31.0488 46.0059 31.0488H49.2871C49.4922 31.0488 49.6836 30.9668 49.8203 30.8164C49.957 30.666 50.0254 30.4609 50.0117 30.2559C49.5059 24.2266 45.5 21.4238 37.4062 21.4238C30.2012 21.4238 25.9082 24.459 25.9082 29.5586C25.9082 35.082 30.1875 36.6133 37.0918 37.2969C45.3633 38.1035 46.0059 39.3203 46.0059 40.9473C46.0059 43.7637 43.7363 44.9668 38.418 44.9668C31.7324 44.9668 30.2695 43.2852 29.7773 39.9629C29.7227 39.6074 29.4219 39.3477 29.0527 39.3477H25.7852C25.375 39.3477 25.0605 39.6758 25.0605 40.0723C25.0605 44.3242 27.3711 49.3965 38.4316 49.3965C46.416 49.3828 51.0098 46.2246 51.0098 40.7285Z" fill="white"/>
</svg>
