<svg width="88" height="48" viewBox="0 0 88 48" fill="none" xmlns="http://www.w3.org/2000/svg">
<path d="M43.75 3.28711C67.1836 3.28711 85.2031 13.1582 85.2031 24C85.2031 34.8418 67.1699 44.7129 43.75 44.7129C20.3164 44.7129 2.29687 34.8418 2.29687 24C2.29687 13.1582 20.3301 3.28711 43.75 3.28711ZM43.75 0.990234C19.5918 0.990234 0 11.2852 0 24C0 36.7148 19.5918 47.0098 43.75 47.0098C67.9082 47.0098 87.5 36.7148 87.5 24C87.5 11.2852 67.9082 0.990234 43.75 0.990234ZM29.832 22.1543C28.752 27.6914 24.9375 27.1172 20.248 27.1172L22.1211 17.4648C27.3164 17.4648 30.8437 16.9043 29.832 22.1543ZM13.3164 36.8926H18.334L19.5234 30.7676C25.1426 30.7676 28.6289 31.1777 31.8555 28.1562C35.4238 24.875 36.3535 19.0371 33.8105 16.1113C32.4844 14.5801 30.3516 13.8281 27.4531 13.8281H17.7871L13.3164 36.8926ZM38.7051 7.68945H43.6953L42.5059 13.8145C46.8125 13.8145 50.8047 13.5 52.7324 15.2773C54.7559 17.1367 53.7852 19.5156 51.5977 30.7402H46.5391C48.6445 19.8848 49.041 18.9824 48.2754 18.1621C47.5371 17.3691 45.8555 17.5332 41.7949 17.5332L39.2246 30.7402H34.2344L38.7051 7.68945ZM69.043 22.1543C67.9492 27.7734 64.0254 27.1172 59.459 27.1172L61.332 17.4648C66.5547 17.4648 70.0547 16.9043 69.043 22.1543ZM52.5273 36.8926H57.5586L58.748 30.7676C64.6543 30.7676 67.9219 31.1094 71.0801 28.1562C74.6484 24.875 75.5781 19.0371 73.0352 16.1113C71.709 14.5801 69.5762 13.8281 66.6777 13.8281H57.0117L52.5273 36.8926Z" fill="white"/>
</svg>
