<?xml version="1.0" encoding="utf-8"?>
<!-- Generator: Adobe Illustrator 27.0.0, SVG Export Plug-In . SVG Version: 6.00 Build 0)  -->
<svg version="1.1"
	 id="Слой_1" xmlns:cc="http://creativecommons.org/ns#" xmlns:dc="http://purl.org/dc/elements/1.1/" xmlns:rdf="http://www.w3.org/1999/02/22-rdf-syntax-ns#"
	 xmlns="http://www.w3.org/2000/svg" xmlns:xlink="http://www.w3.org/1999/xlink" x="0px" y="0px" viewBox="0 0 800 800"
	 style="enable-background:new 0 0 800 800;" xml:space="preserve">
<style type="text/css">
	.st0{fill:#D0D0D0;}
</style>
<path class="st0" d="M352.5,799.5c-74.9-5.4-148.9-24.2-194.3-49.5c-25.9-14.4-45.6-32-53.3-47.8l-4.6-9.4V399.1V105.2l3.6-7.4
	c16.3-33,68.2-62.8,140.6-80.6c24.6-6.1,60.1-12.1,89.1-15.1c29.6-3.1,108-2.6,137.5,0.8c78.4,9.2,145.1,29.8,186.3,57.6
	c15.9,10.7,32.1,27.8,37.6,39.6l4.7,10.1l-0.4,292.9L699,696l-3.8,7.7c-2.1,4.2-8.4,12.6-14,18.5c-34.2,36.2-107.5,63.1-203.7,74.5
	C457.8,799.1,372.6,800.9,352.5,799.5L352.5,799.5z M490.5,547.7c-0.3-0.8-11.5-10.7-24.9-22.2c-13.4-11.4-24.9-21.3-25.6-22
	c-0.7-0.7,1.8-3,5.5-5.2c3.7-2.2,10.9-8.3,15.9-13.5c14.6-15.3,21.5-34.3,21.5-59.1c0-24.4-7.4-44.2-22.4-59.2
	c-15-15.2-32.3-21.7-57.4-21.7c-38.7,0-68.5,22.6-78,59.3c-3.3,12.6-3.2,38.1,0,49.3c8.6,29.2,31.9,50.3,60.9,55.3
	c9.8,1.7,11.2,2.4,17.9,9.7c4,4.4,12.1,13,18.2,19.3l10.9,11.4h29C478,549.1,490.8,548.5,490.5,547.7L490.5,547.7z M391,466.5
	c-7-3.6-9.6-6.5-13.6-14.6c-3.1-6.3-3.6-9.8-3.6-24.6c0-15,0.4-18.3,3.7-24.8c5.3-10.7,12.5-15.7,23.7-16.5
	c15.6-1.1,24.6,6.5,29.3,24.9c5.8,22.6-0.6,46.5-14.5,54.5C408.7,469.6,397.8,470.1,391,466.5L391,466.5z M262.4,508.4
	c30.4-5.8,47.7-23.5,47.7-48.9c0-22.5-11.1-35.7-42-49.4c-17.6-7.9-24-12.8-24-18.6c0-4.8,6.1-10,13.1-11.3c6.9-1.3,25.2,1.9,36,6.2
	l9,3.7v-20v-20l-9.8-2.2c-6.1-1.3-18.8-2.2-33.4-2.1c-20.6,0-24.7,0.5-32.4,3.6c-22.7,9-33.4,24.3-33.3,47.4
	c0.2,21.6,11.6,35.1,39.9,47.2c16.7,7.2,23.4,12.6,23.4,19c0,13.7-22.8,15.4-46.9,3.5c-6.6-3.3-12.5-6.2-13.2-6.5
	c-0.6-0.3-1.2,9-1.2,20.8c0,21.3,0,21.4,3.9,22.9C213.8,509,245.9,511.5,262.4,508.4z M610.2,488.6v-18.1h-27.5h-27.5v-62.1v-62.1
	h-24.4h-24.4v80.1v80.1h51.8h51.8L610.2,488.6L610.2,488.6z M440.5,172c48.4-3.4,84.7-9.7,116.6-20.4c31.8-10.6,50.6-23.5,54.8-37.5
	c1.6-5.4,1.5-7.5-0.8-13.4c-10.1-26.6-66.8-47-153.4-55.3c-37-3.5-104.4-2.4-139.7,2.4C264,55.1,220.3,68.6,200.9,84
	c-39.3,31.2,2.3,65.4,99,81.5C341.8,172.6,396.2,175.1,440.5,172L440.5,172z"/>
</svg>
