<?xml version="1.0" encoding="utf-8"?>
<!-- Generator: Adobe Illustrator 27.0.0, SVG Export Plug-In . SVG Version: 6.00 Build 0)  -->
<svg version="1.1" id="Слой_1" xmlns="http://www.w3.org/2000/svg" xmlns:xlink="http://www.w3.org/1999/xlink" x="0px" y="0px"
	 viewBox="0 0 420 420" style="enable-background:new 0 0 420 420;" xml:space="preserve">
<style type="text/css">
	.st0{fill:#CACACA;}
	.st1{fill:#525251;}
</style>
<path class="st0" d="M386.1,318.4l-162.3,91.8v-71.5l101.1-55.6L386.1,318.4z M397.2,308.3V116.4l-59.4,34.3v123.4L397.2,308.3z
	 M47.3,318.4l162.2,91.8v-71.5l-101.2-55.6L47.3,318.4z M36.2,308.3V116.4l59.4,34.3v123.4L36.2,308.3z M43.2,104L209.6,9.9V79
	l-107.5,59.1L43.2,104z M390.2,104L223.8,9.8v69.1L331.3,138L390.2,104z"/>
<path class="st1" d="M209.6,325.6l-99.8-54.9V162l99.8,57.6V325.6z M223.8,325.6l99.8-54.8V162l-99.8,57.6V325.6z M116.6,149.5
	l100.1-55l100.1,55l-100.1,57.8L116.6,149.5z"/>
</svg>
